<mxfile host="app.diagrams.net" modified="2020-09-16T12:47:29.483Z" agent="5.0 (Windows NT 10.0; Win64; x64) AppleWebKit/537.36 (KHTML, like Gecko) Chrome/85.0.4183.102 Safari/537.36" etag="NnACdWkxOQeUKEE-iC2b" version="13.7.1" type="github">
  <diagram id="m54Roxa5oDRbtQGUq_MD" name="Page-1">
    <mxGraphModel dx="1422" dy="762" grid="1" gridSize="10" guides="1" tooltips="1" connect="1" arrows="1" fold="1" page="1" pageScale="1" pageWidth="850" pageHeight="1100" math="0" shadow="0">
      <root>
        <mxCell id="0" />
        <mxCell id="1" parent="0" />
        <mxCell id="SFSqg4J2aNefF7UK8vih-17" style="rounded=0;html=1;exitX=0.5;exitY=1;startArrow=none;startFill=0;endArrow=none;endFill=0;jettySize=auto;orthogonalLoop=1;edgeStyle=elbowEdgeStyle;elbow=vertical;" edge="1" source="SFSqg4J2aNefF7UK8vih-19" parent="1">
          <mxGeometry relative="1" as="geometry">
            <mxPoint x="640" y="470" as="targetPoint" />
            <Array as="points">
              <mxPoint x="340" y="470" />
              <mxPoint x="330" y="520" />
            </Array>
          </mxGeometry>
        </mxCell>
        <mxCell id="SFSqg4J2aNefF7UK8vih-18" style="edgeStyle=elbowEdgeStyle;rounded=0;elbow=vertical;html=1;exitX=0.5;exitY=0;startArrow=none;startFill=0;endArrow=none;endFill=0;jettySize=auto;orthogonalLoop=1;" edge="1" source="SFSqg4J2aNefF7UK8vih-19" parent="1">
          <mxGeometry relative="1" as="geometry">
            <mxPoint x="640" y="80" as="targetPoint" />
            <Array as="points">
              <mxPoint x="330" y="80" />
              <mxPoint x="330" y="100" />
            </Array>
          </mxGeometry>
        </mxCell>
        <mxCell id="SFSqg4J2aNefF7UK8vih-19" value="Arduino&lt;br style=&quot;font-size: 18px;&quot;&gt;UNO" style="rounded=0;whiteSpace=wrap;html=1;fontSize=18;" vertex="1" parent="1">
          <mxGeometry x="40" y="120" width="190" height="330" as="geometry" />
        </mxCell>
        <mxCell id="SFSqg4J2aNefF7UK8vih-20" value="5V" style="text;html=1;strokeColor=none;fillColor=none;align=center;verticalAlign=middle;whiteSpace=wrap;rounded=0;fontSize=13;" vertex="1" parent="1">
          <mxGeometry x="115" y="120" width="40" height="20" as="geometry" />
        </mxCell>
        <mxCell id="SFSqg4J2aNefF7UK8vih-21" value="GND" style="text;html=1;strokeColor=none;fillColor=none;align=center;verticalAlign=middle;whiteSpace=wrap;rounded=0;fontSize=13;" vertex="1" parent="1">
          <mxGeometry x="115" y="430" width="40" height="20" as="geometry" />
        </mxCell>
        <mxCell id="SFSqg4J2aNefF7UK8vih-22" value="&amp;nbsp;RX 0&lt;br&gt;TX 1&lt;br style=&quot;font-size: 13px&quot;&gt;2&lt;br style=&quot;font-size: 13px&quot;&gt;3&lt;br style=&quot;font-size: 13px&quot;&gt;4&lt;br style=&quot;font-size: 13px&quot;&gt;5&lt;br style=&quot;font-size: 13px&quot;&gt;6&lt;br style=&quot;font-size: 13px&quot;&gt;7&lt;br style=&quot;font-size: 13px&quot;&gt;8&lt;br style=&quot;font-size: 13px&quot;&gt;9&lt;br style=&quot;font-size: 13px&quot;&gt;10&lt;br style=&quot;font-size: 13px&quot;&gt;11&lt;br style=&quot;font-size: 13px&quot;&gt;12&lt;br style=&quot;font-size: 13px&quot;&gt;13&lt;br style=&quot;font-size: 13px&quot;&gt;A0&lt;br style=&quot;font-size: 13px&quot;&gt;A1&lt;br style=&quot;font-size: 13px&quot;&gt;A2&lt;br style=&quot;font-size: 13px&quot;&gt;A3&lt;br style=&quot;font-size: 13px&quot;&gt;SDA A4&lt;br style=&quot;font-size: 13px&quot;&gt;SCL A5&lt;br style=&quot;font-size: 13px&quot;&gt;" style="text;html=1;strokeColor=none;fillColor=none;align=right;verticalAlign=middle;whiteSpace=wrap;rounded=0;spacing=2;spacingBottom=0;fontSize=13;" vertex="1" parent="1">
          <mxGeometry x="150" y="280" width="80" height="20" as="geometry" />
        </mxCell>
        <mxCell id="SFSqg4J2aNefF7UK8vih-23" value="" style="group" vertex="1" connectable="0" parent="1">
          <mxGeometry x="340" y="350" width="28" height="89" as="geometry" />
        </mxCell>
        <mxCell id="SFSqg4J2aNefF7UK8vih-24" value="" style="verticalLabelPosition=bottom;shadow=0;dashed=0;align=center;fillColor=#ffffff;html=1;verticalAlign=top;strokeWidth=1;shape=mxgraph.electrical.opto_electronics.led_2;direction=south;aspect=fixed;" vertex="1" parent="SFSqg4J2aNefF7UK8vih-23">
          <mxGeometry width="28" height="40" as="geometry" />
        </mxCell>
        <mxCell id="SFSqg4J2aNefF7UK8vih-25" value="220&amp;nbsp;" style="verticalLabelPosition=middle;shadow=0;dashed=0;align=center;fillColor=#ffffff;html=1;verticalAlign=middle;strokeWidth=1;shape=mxgraph.electrical.resistors.resistor_1;direction=south;labelPosition=center;horizontal=0;aspect=fixed;" vertex="1" parent="SFSqg4J2aNefF7UK8vih-23">
          <mxGeometry x="6.5" y="32" width="11" height="57" as="geometry" />
        </mxCell>
        <mxCell id="SFSqg4J2aNefF7UK8vih-26" style="edgeStyle=elbowEdgeStyle;rounded=0;elbow=vertical;html=1;exitX=1;exitY=0.57;exitPerimeter=0;entryX=0;entryY=0.5;entryPerimeter=0;startArrow=none;startFill=0;endArrow=none;endFill=0;jettySize=auto;orthogonalLoop=1;" edge="1" parent="SFSqg4J2aNefF7UK8vih-23" source="SFSqg4J2aNefF7UK8vih-24" target="SFSqg4J2aNefF7UK8vih-25">
          <mxGeometry relative="1" as="geometry" />
        </mxCell>
        <mxCell id="SFSqg4J2aNefF7UK8vih-27" value="" style="group" vertex="1" connectable="0" parent="1">
          <mxGeometry x="430" y="350" width="28" height="89" as="geometry" />
        </mxCell>
        <mxCell id="SFSqg4J2aNefF7UK8vih-28" value="" style="verticalLabelPosition=bottom;shadow=0;dashed=0;align=center;fillColor=#ffffff;html=1;verticalAlign=top;strokeWidth=1;shape=mxgraph.electrical.opto_electronics.led_2;direction=south;aspect=fixed;" vertex="1" parent="SFSqg4J2aNefF7UK8vih-27">
          <mxGeometry width="28" height="40" as="geometry" />
        </mxCell>
        <mxCell id="SFSqg4J2aNefF7UK8vih-29" value="220&amp;nbsp;" style="verticalLabelPosition=middle;shadow=0;dashed=0;align=center;fillColor=#ffffff;html=1;verticalAlign=middle;strokeWidth=1;shape=mxgraph.electrical.resistors.resistor_1;direction=south;labelPosition=center;horizontal=0;aspect=fixed;" vertex="1" parent="SFSqg4J2aNefF7UK8vih-27">
          <mxGeometry x="6.5" y="32" width="11" height="57" as="geometry" />
        </mxCell>
        <mxCell id="SFSqg4J2aNefF7UK8vih-30" style="edgeStyle=elbowEdgeStyle;rounded=0;elbow=vertical;html=1;exitX=1;exitY=0.57;exitPerimeter=0;entryX=0;entryY=0.5;entryPerimeter=0;startArrow=none;startFill=0;endArrow=none;endFill=0;jettySize=auto;orthogonalLoop=1;" edge="1" parent="SFSqg4J2aNefF7UK8vih-27" source="SFSqg4J2aNefF7UK8vih-28" target="SFSqg4J2aNefF7UK8vih-29">
          <mxGeometry relative="1" as="geometry" />
        </mxCell>
        <mxCell id="SFSqg4J2aNefF7UK8vih-31" style="edgeStyle=orthogonalEdgeStyle;rounded=0;orthogonalLoop=1;jettySize=auto;html=1;exitX=0;exitY=0.57;exitDx=0;exitDy=0;exitPerimeter=0;entryX=1;entryY=0.358;entryDx=0;entryDy=0;entryPerimeter=0;endArrow=none;endFill=0;" edge="1" parent="1" source="SFSqg4J2aNefF7UK8vih-24" target="SFSqg4J2aNefF7UK8vih-19">
          <mxGeometry relative="1" as="geometry" />
        </mxCell>
        <mxCell id="SFSqg4J2aNefF7UK8vih-32" style="edgeStyle=orthogonalEdgeStyle;rounded=0;orthogonalLoop=1;jettySize=auto;html=1;exitX=0;exitY=0.57;exitDx=0;exitDy=0;exitPerimeter=0;entryX=0.995;entryY=0.312;entryDx=0;entryDy=0;entryPerimeter=0;endArrow=none;endFill=0;" edge="1" parent="1" source="SFSqg4J2aNefF7UK8vih-28" target="SFSqg4J2aNefF7UK8vih-19">
          <mxGeometry relative="1" as="geometry" />
        </mxCell>
        <mxCell id="SFSqg4J2aNefF7UK8vih-33" style="edgeStyle=orthogonalEdgeStyle;rounded=0;orthogonalLoop=1;jettySize=auto;html=1;exitX=1;exitY=0.5;exitDx=0;exitDy=0;exitPerimeter=0;endArrow=oval;endFill=1;" edge="1" parent="1" source="SFSqg4J2aNefF7UK8vih-25">
          <mxGeometry relative="1" as="geometry">
            <mxPoint x="352" y="470" as="targetPoint" />
          </mxGeometry>
        </mxCell>
        <mxCell id="SFSqg4J2aNefF7UK8vih-34" style="edgeStyle=orthogonalEdgeStyle;rounded=0;orthogonalLoop=1;jettySize=auto;html=1;exitX=1;exitY=0.5;exitDx=0;exitDy=0;exitPerimeter=0;endArrow=oval;endFill=1;" edge="1" parent="1" source="SFSqg4J2aNefF7UK8vih-29">
          <mxGeometry relative="1" as="geometry">
            <mxPoint x="442" y="470" as="targetPoint" />
          </mxGeometry>
        </mxCell>
        <mxCell id="SFSqg4J2aNefF7UK8vih-35" value="" style="group" vertex="1" connectable="0" parent="1">
          <mxGeometry x="480" y="270" width="120" height="80" as="geometry" />
        </mxCell>
        <mxCell id="SFSqg4J2aNefF7UK8vih-36" value="&lt;font style=&quot;font-size: 16px&quot;&gt;&lt;b&gt;LCD&lt;/b&gt;&lt;/font&gt;" style="text;html=1;resizable=0;points=[];autosize=1;align=left;verticalAlign=top;spacingTop=-4;" vertex="1" parent="SFSqg4J2aNefF7UK8vih-35">
          <mxGeometry x="70" y="30" width="50" height="20" as="geometry" />
        </mxCell>
        <mxCell id="SFSqg4J2aNefF7UK8vih-37" value="Vcc" style="text;html=1;resizable=0;points=[];autosize=1;align=left;verticalAlign=top;spacingTop=-4;" vertex="1" parent="SFSqg4J2aNefF7UK8vih-35">
          <mxGeometry x="40" width="40" height="20" as="geometry" />
        </mxCell>
        <mxCell id="SFSqg4J2aNefF7UK8vih-38" value="GND" style="text;html=1;resizable=0;points=[];autosize=1;align=left;verticalAlign=top;spacingTop=-4;" vertex="1" parent="SFSqg4J2aNefF7UK8vih-35">
          <mxGeometry x="40" y="60" width="40" height="20" as="geometry" />
        </mxCell>
        <mxCell id="SFSqg4J2aNefF7UK8vih-39" value="SDA" style="text;html=1;resizable=0;points=[];autosize=1;align=left;verticalAlign=top;spacingTop=-4;" vertex="1" parent="SFSqg4J2aNefF7UK8vih-35">
          <mxGeometry y="17" width="40" height="20" as="geometry" />
        </mxCell>
        <mxCell id="SFSqg4J2aNefF7UK8vih-40" value="SCL" style="text;html=1;resizable=0;points=[];autosize=1;align=left;verticalAlign=top;spacingTop=-4;" vertex="1" parent="SFSqg4J2aNefF7UK8vih-35">
          <mxGeometry y="53" width="40" height="20" as="geometry" />
        </mxCell>
        <mxCell id="SFSqg4J2aNefF7UK8vih-41" value="" style="rounded=0;whiteSpace=wrap;html=1;fillColor=none;" vertex="1" parent="SFSqg4J2aNefF7UK8vih-35">
          <mxGeometry width="120" height="80" as="geometry" />
        </mxCell>
        <mxCell id="SFSqg4J2aNefF7UK8vih-42" style="edgeStyle=orthogonalEdgeStyle;rounded=0;orthogonalLoop=1;jettySize=auto;html=1;exitX=0.5;exitY=0;exitDx=0;exitDy=0;endArrow=oval;endFill=1;" edge="1" parent="1" source="SFSqg4J2aNefF7UK8vih-41">
          <mxGeometry relative="1" as="geometry">
            <mxPoint x="520" y="80" as="targetPoint" />
          </mxGeometry>
        </mxCell>
        <mxCell id="SFSqg4J2aNefF7UK8vih-43" style="edgeStyle=orthogonalEdgeStyle;rounded=0;orthogonalLoop=1;jettySize=auto;html=1;exitX=0.5;exitY=1;exitDx=0;exitDy=0;endArrow=oval;endFill=1;" edge="1" parent="1" source="SFSqg4J2aNefF7UK8vih-41">
          <mxGeometry relative="1" as="geometry">
            <mxPoint x="540" y="470" as="targetPoint" />
          </mxGeometry>
        </mxCell>
        <mxCell id="SFSqg4J2aNefF7UK8vih-44" style="edgeStyle=orthogonalEdgeStyle;rounded=0;orthogonalLoop=1;jettySize=auto;html=1;exitX=0;exitY=0.25;exitDx=0;exitDy=0;entryX=1;entryY=0.9;entryDx=0;entryDy=0;entryPerimeter=0;endArrow=none;endFill=0;" edge="1" parent="1" source="SFSqg4J2aNefF7UK8vih-41" target="SFSqg4J2aNefF7UK8vih-19">
          <mxGeometry relative="1" as="geometry">
            <Array as="points">
              <mxPoint x="260" y="290" />
              <mxPoint x="260" y="417" />
            </Array>
          </mxGeometry>
        </mxCell>
        <mxCell id="SFSqg4J2aNefF7UK8vih-45" style="edgeStyle=orthogonalEdgeStyle;rounded=0;orthogonalLoop=1;jettySize=auto;html=1;exitX=0;exitY=0.75;exitDx=0;exitDy=0;entryX=1;entryY=0.945;entryDx=0;entryDy=0;entryPerimeter=0;endArrow=none;endFill=0;" edge="1" parent="1" source="SFSqg4J2aNefF7UK8vih-41" target="SFSqg4J2aNefF7UK8vih-19">
          <mxGeometry relative="1" as="geometry">
            <Array as="points">
              <mxPoint x="310" y="330" />
              <mxPoint x="310" y="432" />
            </Array>
          </mxGeometry>
        </mxCell>
      </root>
    </mxGraphModel>
  </diagram>
</mxfile>
